<?xml version="1.0" standalone="no"?>
<!DOCTYPE svg PUBLIC "-//W3C//DTD SVG 20010904//EN"
 "http://www.w3.org/TR/2001/REC-SVG-20010904/DTD/svg10.dtd">
<svg version="1.0" xmlns="http://www.w3.org/2000/svg"
 width="512.000000pt" height="512.000000pt" viewBox="0 0 512.000000 512.000000"
 preserveAspectRatio="xMidYMid meet">

<g transform="translate(0.000000,512.000000) scale(0.100000,-0.100000)"
fill="#000000" stroke="none">
<path d="M2420 5094 c-112 -24 -203 -76 -297 -171 -115 -117 -157 -131 -300
-97 -307 72 -661 -175 -704 -491 -18 -134 -29 -166 -73 -210 -23 -22 -61 -47
-85 -55 -114 -37 -245 -159 -305 -282 -49 -100 -66 -176 -67 -288 0 -115 17
-175 79 -290 41 -74 47 -93 47 -145 0 -53 -5 -69 -41 -130 -68 -117 -85 -179
-85 -308 1 -244 128 -448 341 -550 52 -25 107 -58 122 -74 l27 -29 -340 -589
c-217 -376 -343 -603 -346 -626 -10 -71 49 -139 121 -139 32 0 595 95 682 115
18 4 31 -25 139 -328 128 -356 141 -380 208 -392 47 -9 80 -1 111 28 14 12
154 247 312 522 158 275 292 506 298 512 9 10 24 7 71 -11 136 -55 314 -55
450 0 47 18 62 21 71 11 6 -6 140 -237 298 -512 158 -275 298 -510 312 -522
31 -29 64 -37 109 -29 70 13 77 28 207 386 66 184 121 336 122 337 0 1 150
-25 331 -58 182 -32 349 -59 371 -59 72 0 131 68 121 139 -3 23 -129 250 -346
626 l-340 589 27 29 c15 16 70 49 122 74 165 79 278 219 325 403 13 48 16 93
13 175 -5 125 -20 175 -82 280 -36 61 -41 77 -41 130 0 52 6 71 47 145 25 47
53 109 62 139 20 70 21 228 1 306 -47 186 -200 364 -356 415 -24 8 -62 33 -85
55 -44 44 -55 76 -73 210 -44 318 -397 564 -704 491 -143 -34 -185 -20 -300
97 -63 64 -101 93 -158 121 -128 63 -277 81 -419 50z m253 -159 c91 -24 136
-52 224 -140 111 -113 166 -139 288 -140 50 0 118 7 153 15 124 28 277 -24
385 -131 76 -77 113 -156 126 -273 20 -170 89 -267 246 -342 108 -52 159 -93
204 -168 51 -85 71 -156 71 -252 0 -96 -14 -143 -70 -240 -55 -96 -70 -185
-47 -280 10 -37 35 -98 56 -134 49 -81 61 -125 61 -221 0 -188 -92 -333 -260
-412 -177 -82 -239 -167 -261 -357 -12 -111 -52 -193 -129 -269 -103 -102
-245 -151 -368 -130 -119 21 -159 24 -216 17 -84 -11 -166 -59 -233 -135 -96
-110 -199 -157 -343 -157 -146 0 -246 46 -345 159 -40 46 -74 73 -120 96 -97
47 -151 51 -327 20 -180 -31 -387 89 -468 271 -11 25 -24 82 -29 129 -22 189
-84 274 -261 356 -167 78 -261 225 -261 411 0 91 14 143 62 222 55 93 76 184
61 268 -6 35 -21 85 -34 111 -14 25 -37 70 -52 99 -55 105 -51 258 10 382 51
102 109 157 225 212 162 78 230 172 249 344 19 166 106 291 254 364 90 45 179
58 258 40 35 -8 104 -15 153 -15 122 1 177 27 288 140 45 45 101 92 125 104
98 50 220 63 325 36z m-1524 -3257 c47 -146 236 -311 416 -364 71 -20 209 -23
275 -4 61 16 133 14 174 -5 37 -18 130 -110 123 -123 -113 -200 -543 -941
-552 -950 -9 -10 -33 47 -115 275 -56 158 -112 309 -122 335 -33 78 -27 78
-418 8 -188 -34 -343 -60 -345 -58 -6 7 539 938 545 931 4 -4 13 -25 19 -45z
m3121 -420 c147 -255 266 -464 265 -466 -1 -2 -157 25 -345 58 -391 70 -385
70 -418 -8 -10 -26 -66 -177 -122 -335 -82 -228 -106 -285 -116 -275 -8 9
-421 720 -551 950 -7 13 86 105 123 123 41 19 113 21 174 5 66 -19 204 -16
275 4 195 57 370 220 429 400 4 10 9 16 12 13 3 -3 126 -214 274 -469z"/>
<path d="M2360 4385 c-314 -50 -619 -220 -815 -455 -162 -194 -260 -406 -300
-649 -25 -150 -17 -387 19 -529 63 -249 173 -441 360 -628 201 -199 419 -315
702 -370 131 -26 357 -24 492 5 281 59 506 183 703 388 166 172 275 369 335
608 35 136 44 385 20 525 -78 455 -375 833 -796 1013 -224 95 -486 129 -720
92z m355 -155 c437 -62 801 -357 950 -770 62 -173 82 -408 50 -592 -78 -447
-413 -817 -845 -932 -681 -183 -1358 258 -1470 956 -18 109 -8 349 18 448 60
227 156 396 316 555 260 260 627 385 981 335z"/>
<path d="M2511 3953 c-11 -10 -63 -119 -117 -248 -52 -126 -99 -234 -103 -238
-4 -4 -113 -17 -242 -27 -129 -11 -249 -22 -267 -25 -40 -7 -64 -42 -60 -87 3
-29 26 -53 198 -202 107 -93 196 -176 198 -185 1 -9 -22 -121 -53 -249 -30
-128 -55 -244 -55 -258 0 -32 42 -74 73 -74 14 0 126 61 251 136 l226 136 226
-136 c126 -76 237 -136 250 -136 32 0 74 42 74 74 0 14 -25 130 -55 258 -31
128 -54 240 -53 249 2 9 75 79 163 154 224 192 235 203 235 240 0 40 -23 72
-58 79 -15 3 -135 15 -266 26 -132 10 -243 23 -247 27 -4 4 -51 112 -103 238
-54 129 -106 238 -117 248 -12 9 -34 17 -49 17 -15 0 -37 -8 -49 -17z m123
-445 c38 -90 76 -172 86 -182 16 -16 46 -21 197 -33 98 -8 184 -16 191 -19 8
-2 -34 -45 -100 -101 -169 -146 -178 -156 -178 -194 0 -19 18 -108 40 -199 21
-91 38 -166 37 -166 -1 -1 -74 41 -161 94 -95 57 -170 95 -186 95 -16 0 -91
-38 -186 -95 -87 -53 -160 -95 -161 -94 -1 0 16 75 37 166 22 91 40 180 40
199 0 38 -9 48 -178 194 -66 56 -108 99 -100 101 7 3 93 11 191 19 151 12 181
17 197 33 10 10 48 92 85 182 37 89 71 162 75 162 4 0 37 -73 74 -162z"/>
</g>
</svg>
