<?xml version="1.0" standalone="no"?>
<!DOCTYPE svg PUBLIC "-//W3C//DTD SVG 20010904//EN"
 "http://www.w3.org/TR/2001/REC-SVG-20010904/DTD/svg10.dtd">
<svg version="1.0" xmlns="http://www.w3.org/2000/svg"
 width="512.000000pt" height="512.000000pt" viewBox="0 0 512.000000 512.000000"
 preserveAspectRatio="xMidYMid meet">

<g transform="translate(0.000000,512.000000) scale(0.100000,-0.100000)"
fill="#000000" stroke="none">
<path d="M1202 4325 c-56 -25 -91 -54 -119 -103 -27 -45 -28 -54 -33 -219 -6
-220 -3 -215 -155 -224 -83 -4 -113 -10 -152 -30 -54 -28 -107 -92 -123 -147
-14 -52 -14 -2613 1 -2665 13 -49 73 -115 124 -138 38 -18 119 -19 1816 -19
l1775 0 51 25 c51 26 91 72 112 128 8 19 11 444 11 1341 l0 1312 -26 52 c-14
29 -42 66 -62 82 -72 59 -78 60 -726 60 l-591 1 -127 227 c-164 291 -162 289
-200 312 -32 19 -52 20 -788 20 -635 -1 -760 -3 -788 -15z m1642 -405 c94
-166 157 -267 174 -278 24 -16 80 -17 655 -22 l629 -5 24 -28 c23 -27 24 -34
24 -183 l0 -154 -1790 0 -1790 0 0 154 c0 149 1 156 24 183 22 26 29 28 133
33 95 5 114 9 156 33 60 35 102 93 116 158 6 27 11 111 11 185 0 130 1 136 25
159 l24 25 719 0 718 0 148 -260z m1506 -1870 c0 -1107 1 -1086 -45 -1104 -9
-3 -797 -6 -1751 -6 l-1735 0 -24 25 -25 24 0 1051 0 1050 1790 0 1790 0 0
-1040z"/>
<path d="M2451 2909 c-125 -16 -297 -84 -391 -153 -164 -123 -286 -307 -331
-503 -18 -79 -21 -114 -17 -226 4 -114 9 -145 37 -227 45 -134 110 -238 211
-340 124 -123 270 -202 439 -236 110 -22 284 -15 391 16 273 78 489 286 581
560 28 83 33 112 37 230 3 113 1 149 -17 223 -48 201 -170 384 -336 506 -102
74 -257 133 -397 151 -92 11 -115 11 -207 -1z m284 -175 c236 -60 427 -252
495 -496 25 -89 27 -243 5 -338 -53 -224 -238 -423 -461 -496 -79 -26 -103
-29 -214 -29 -111 0 -135 3 -214 29 -223 73 -408 272 -461 496 -19 84 -19 249
0 325 28 112 99 238 178 318 181 183 427 253 672 191z"/>
<path d="M2255 2410 c-62 -41 -65 -57 -65 -345 0 -292 4 -310 71 -350 32 -19
52 -20 299 -20 386 0 370 -16 370 368 0 245 -1 261 -21 297 -39 69 -44 70
-351 70 -255 0 -275 -1 -303 -20z m515 -350 l0 -210 -210 0 -210 0 0 210 0
210 210 0 210 0 0 -210z"/>
</g>
</svg>
