<?xml version="1.0" standalone="no"?>
<!DOCTYPE svg PUBLIC "-//W3C//DTD SVG 20010904//EN"
 "http://www.w3.org/TR/2001/REC-SVG-20010904/DTD/svg10.dtd">
<svg version="1.0" xmlns="http://www.w3.org/2000/svg"
 width="512.000000pt" height="512.000000pt" viewBox="0 0 512.000000 512.000000"
 preserveAspectRatio="xMidYMid meet">

<g transform="translate(0.000000,512.000000) scale(0.100000,-0.100000)"
fill="#000000" stroke="none">
<path d="M2483 5098 c-42 -23 -2319 -2218 -2349 -2264 -47 -71 -16 -187 62
-231 36 -21 52 -23 212 -23 l172 0 0 -1195 c0 -813 3 -1210 11 -1244 13 -62
40 -98 93 -122 39 -17 79 -19 674 -19 515 0 639 3 665 14 39 16 82 61 96 99 8
19 11 259 11 733 l0 704 430 0 430 0 0 -704 c0 -474 3 -714 11 -733 14 -38 57
-83 96 -99 26 -11 150 -14 665 -14 595 0 635 2 674 19 53 24 80 60 93 122 8
34 11 431 11 1244 l0 1195 173 0 c159 0 175 2 211 23 78 44 109 160 62 231
-30 46 -2307 2241 -2349 2264 -22 12 -57 22 -77 22 -20 0 -55 -10 -77 -22z
m1217 -1250 l1132 -1093 -173 -5 c-150 -4 -179 -8 -208 -25 -44 -26 -70 -62
-81 -111 -6 -22 -10 -556 -10 -1241 l0 -1203 -600 0 -600 0 0 704 c0 475 -3
714 -11 733 -15 40 -48 73 -94 94 -37 17 -74 19 -495 19 -421 0 -458 -2 -495
-19 -46 -21 -79 -54 -94 -94 -8 -19 -11 -258 -11 -733 l0 -704 -600 0 -600 0
0 1203 c0 685 -4 1219 -10 1241 -11 49 -37 85 -81 111 -29 17 -58 21 -207 25
l-174 5 1132 1093 c623 600 1135 1092 1140 1092 4 0 518 -492 1140 -1092z"/>
</g>
</svg>
