<?xml version="1.0" standalone="no"?>
<!DOCTYPE svg PUBLIC "-//W3C//DTD SVG 20010904//EN"
 "http://www.w3.org/TR/2001/REC-SVG-20010904/DTD/svg10.dtd">
<svg version="1.0" xmlns="http://www.w3.org/2000/svg"
 width="512.000000pt" height="512.000000pt" viewBox="0 0 512.000000 512.000000"
 preserveAspectRatio="xMidYMid meet">

<g transform="translate(0.000000,512.000000) scale(0.100000,-0.100000)"
fill="#000000" stroke="none">
<path d="M1239 4716 c-103 -28 -174 -91 -210 -187 -18 -46 -19 -87 -19 -574
l0 -524 -476 -3 -476 -3 -29 -33 -29 -32 0 -1036 c0 -1124 -2 -1076 55 -1102
19 -9 152 -12 490 -12 l465 0 0 -375 0 -375 29 -32 29 -33 521 -3 c576 -3 574
-3 606 59 14 27 15 39 6 70 -21 71 -6 69 -526 69 l-465 0 0 310 0 310 470 0
470 0 32 29 33 29 3 1036 c2 928 1 1040 -14 1067 -30 58 -38 59 -539 59 l-455
0 0 514 c0 502 0 514 20 539 12 15 38 31 58 37 51 14 2493 14 2544 0 70 -20
78 -42 78 -211 l0 -149 -716 0 -716 0 -29 -29 -29 -29 0 -977 0 -977 29 -29
29 -29 716 0 716 0 0 -215 0 -214 -417 -3 -418 -3 -54 -30 c-60 -33 -122 -104
-143 -162 -9 -27 -13 -97 -13 -238 0 -182 2 -204 21 -246 31 -67 78 -114 146
-149 l61 -30 409 0 408 0 0 -105 0 -105 -465 0 c-520 0 -505 2 -526 -69 -9
-31 -8 -43 6 -70 32 -62 30 -62 605 -59 l520 3 27 28 c28 27 28 28 33 200 l5
172 175 5 c173 5 176 5 230 36 64 36 122 107 142 173 9 31 13 106 13 231 0
178 -1 187 -26 240 -35 74 -67 110 -131 145 -52 30 -55 30 -231 33 l-177 4 2
211 3 212 477 5 477 5 23 23 23 23 3 967 c2 713 -1 974 -9 995 -24 58 -11 57
-526 57 l-473 0 0 160 c0 133 -3 168 -19 210 -29 77 -73 125 -149 162 l-67 33
-1295 2 c-1005 1 -1305 -1 -1341 -11z m3681 -1591 l0 -835 -222 0 -223 0 -355
332 c-806 753 -773 724 -852 762 -89 44 -170 60 -265 52 -125 -10 -223 -57
-325 -154 l-58 -55 0 366 0 367 1150 0 1150 0 0 -835z m-1748 82 c41 -19 159
-123 526 -466 259 -243 472 -444 472 -447 0 -2 -349 -4 -775 -4 l-775 0 0 333
0 332 123 114 c119 110 170 146 232 162 50 13 140 3 197 -24z m-1157 -887 l0
-905 -907 -3 -908 -2 0 903 c0 497 3 907 7 910 3 4 412 6 907 5 l901 -3 0
-905z m2426 -889 l29 -29 0 -172 0 -172 -29 -29 -29 -29 -641 0 -641 0 -32 29
-33 29 0 172 0 172 33 29 32 29 641 0 641 0 29 -29z"/>
<path d="M4195 3746 c-218 -54 -358 -271 -315 -488 43 -222 264 -378 479 -339
92 17 168 56 232 120 162 163 166 419 9 585 -106 112 -258 158 -405 122z m211
-221 c136 -80 142 -284 12 -372 -102 -68 -243 -38 -309 65 -124 196 97 424
297 307z"/>
<path d="M744 2952 c-52 -41 -55 -109 -8 -153 24 -22 35 -24 150 -27 l124 -4
0 -519 0 -519 29 -32 c39 -44 98 -46 139 -5 l27 27 3 525 3 525 110 0 c151 0
191 23 191 108 0 28 -7 43 -31 64 l-31 28 -343 0 c-309 0 -344 -2 -363 -18z"/>
<path d="M2489 561 c-40 -40 -40 -89 0 -133 24 -27 36 -33 71 -33 35 0 47 6
71 33 40 44 40 93 0 133 -23 23 -38 29 -71 29 -33 0 -48 -6 -71 -29z"/>
</g>
</svg>
