<?xml version="1.0" standalone="no"?>
<!DOCTYPE svg PUBLIC "-//W3C//DTD SVG 20010904//EN"
 "http://www.w3.org/TR/2001/REC-SVG-20010904/DTD/svg10.dtd">
<svg version="1.0" xmlns="http://www.w3.org/2000/svg"
 width="512.000000pt" height="512.000000pt" viewBox="0 0 512.000000 512.000000"
 preserveAspectRatio="xMidYMid meet">

<g transform="translate(0.000000,512.000000) scale(0.100000,-0.100000)"
fill="#000000" stroke="none">
<path d="M1426 4949 c-62 -15 -153 -68 -197 -116 -22 -24 -55 -74 -72 -111
-30 -63 -32 -75 -35 -209 -4 -141 -4 -142 21 -167 34 -34 80 -34 112 -1 24 23
25 31 25 136 0 61 5 130 12 153 16 55 99 138 154 154 59 17 1849 17 1908 0 55
-16 138 -99 154 -154 7 -23 12 -92 12 -153 0 -105 1 -113 25 -136 32 -33 78
-33 112 1 25 25 25 26 22 168 -4 141 -5 143 -41 218 -45 91 -103 147 -196 191
l-67 32 -955 2 c-556 1 -971 -3 -994 -8z"/>
<path d="M2105 4615 c-16 -15 -25 -36 -25 -55 0 -19 9 -40 25 -55 l24 -25 271
0 271 0 24 25 c16 15 25 36 25 55 0 19 -9 40 -25 55 l-24 25 -271 0 -271 0
-24 -25z"/>
<path d="M1260 4145 c-351 -56 -660 -285 -824 -612 -212 -424 -127 -940 214
-1283 144 -146 312 -242 518 -298 87 -23 115 -26 272 -26 157 0 185 3 272 26
332 90 585 298 734 603 209 430 124 935 -216 1275 -257 256 -611 371 -970 315z
m411 -174 c176 -46 317 -127 445 -255 45 -44 102 -114 128 -153 216 -334 205
-767 -28 -1087 l-40 -54 -47 67 c-79 113 -213 197 -351 221 -43 8 -173 10
-379 8 -288 -4 -319 -6 -370 -25 -126 -47 -210 -108 -276 -200 -44 -62 -46
-63 -65 -46 -58 52 -151 243 -185 379 -24 95 -24 333 0 428 46 182 128 328
261 462 158 157 305 231 556 278 59 11 277 -3 351 -23z m171 -1448 c81 -38
145 -96 182 -163 33 -61 33 -62 -69 -125 -82 -52 -169 -89 -270 -117 -92 -26
-299 -35 -403 -18 -142 23 -340 107 -428 184 l-27 23 28 52 c48 88 151 166
252 190 21 5 180 9 353 8 l315 -2 67 -32z"/>
<path d="M1346 3670 c-63 -16 -153 -70 -197 -117 -22 -24 -55 -74 -72 -111
-29 -61 -32 -76 -32 -163 0 -90 2 -99 37 -171 45 -91 103 -147 196 -191 61
-29 76 -32 162 -32 86 0 101 3 162 32 93 44 151 100 196 191 35 72 37 81 37
172 0 91 -2 100 -37 172 -68 136 -188 217 -336 224 -42 2 -94 -1 -116 -6z
m168 -162 c86 -26 166 -136 166 -228 0 -92 -80 -202 -166 -228 -94 -28 -169
-8 -239 63 -102 101 -102 229 0 330 70 71 145 90 239 63z"/>
<path d="M3125 4151 c-91 -23 -173 -90 -215 -176 -19 -41 -24 -66 -24 -135 -1
-78 2 -90 33 -148 38 -70 69 -100 145 -140 l51 -27 565 0 565 0 63 34 c70 38
101 70 140 145 22 43 26 64 26 136 0 72 -4 93 -26 136 -39 75 -70 107 -140
145 l-63 34 -545 2 c-300 1 -558 -2 -575 -6z m1121 -177 c52 -39 69 -71 69
-133 0 -48 -5 -64 -29 -95 -51 -67 -39 -66 -606 -66 -559 0 -552 -1 -603 59
-48 57 -48 145 0 202 51 60 39 59 615 56 514 -2 527 -2 554 -23z"/>
<path d="M3545 3335 l-25 -24 0 -1392 c0 -1063 -3 -1401 -12 -1433 -16 -55
-99 -138 -154 -154 -59 -17 -1849 -17 -1908 0 -55 16 -138 99 -154 154 -9 30
-12 198 -12 633 l0 592 -25 24 c-32 33 -78 33 -111 0 l-25 -25 3 -623 3 -623
37 -76 c45 -91 103 -147 196 -191 l67 -32 975 0 975 0 67 32 c93 44 151 100
196 191 l37 76 3 192 4 191 23 -23 c22 -22 33 -24 118 -24 130 0 137 6 167
148 l24 109 88 37 88 37 93 -60 c59 -39 104 -61 122 -61 24 0 51 22 147 118
96 96 118 123 118 147 0 18 -22 63 -60 123 l-61 94 38 89 c24 56 43 89 53 89
8 0 58 11 109 24 133 33 131 30 131 226 0 196 2 193 -131 226 -51 13 -101 24
-109 24 -10 0 -29 33 -53 89 l-38 90 61 94 c37 59 60 105 60 123 0 23 -22 50
-118 146 -96 96 -123 118 -146 118 -18 0 -64 -23 -124 -61 l-95 -61 -66 30
c-36 17 -75 33 -86 36 -17 5 -25 24 -43 114 -30 144 -38 152 -168 152 -87 0
-97 -2 -119 -25 l-25 -24 0 160 c0 156 -1 160 -25 184 -15 16 -36 25 -55 25
-19 0 -40 -9 -55 -25z m234 -455 c56 0 50 9 77 -117 19 -95 34 -112 114 -138
30 -10 91 -35 136 -57 94 -45 91 -45 205 30 l77 50 46 -47 c25 -26 46 -51 46
-55 0 -5 -22 -43 -49 -85 -26 -42 -51 -85 -55 -96 -4 -14 7 -48 32 -100 21
-44 49 -110 61 -148 13 -37 30 -71 39 -76 10 -5 61 -18 115 -31 l97 -22 0 -68
0 -68 -97 -22 c-54 -13 -105 -26 -115 -31 -9 -5 -26 -39 -39 -76 -12 -38 -39
-104 -61 -149 -45 -94 -45 -91 30 -205 l50 -77 -47 -46 c-26 -25 -51 -46 -55
-46 -5 0 -43 22 -85 49 -42 26 -85 51 -96 55 -13 4 -49 -8 -100 -33 -44 -21
-110 -48 -146 -60 -75 -25 -82 -33 -104 -136 -8 -38 -18 -80 -20 -92 -5 -20
-12 -23 -56 -23 -40 0 -55 -5 -74 -25 l-25 -24 0 659 0 660 26 6 c44 11 141
-4 193 -30 72 -37 104 -68 142 -138 31 -58 34 -70 33 -148 0 -69 -4 -93 -23
-130 -40 -76 -62 -101 -125 -142 -68 -44 -76 -53 -76 -89 0 -41 36 -79 73 -79
72 0 208 114 261 218 96 190 65 400 -82 554 -93 98 -232 154 -363 146 l-59 -3
0 267 0 267 25 -24 c19 -20 34 -25 74 -25z"/>
<path d="M694 1610 c-54 -21 -72 -100 -31 -138 39 -37 98 -28 122 19 21 39 19
64 -7 93 -27 29 -55 38 -84 26z"/>
<path d="M1625 1575 c-16 -15 -25 -36 -25 -55 0 -19 9 -40 25 -55 l24 -25 751
0 751 0 24 25 c33 32 33 78 0 110 l-24 25 -751 0 -751 0 -24 -25z"/>
<path d="M694 1290 c-54 -21 -72 -100 -31 -138 39 -37 98 -28 122 19 21 39 19
64 -7 93 -27 29 -55 38 -84 26z"/>
<path d="M1625 1255 c-16 -15 -25 -36 -25 -55 0 -19 9 -40 25 -55 l24 -25 351
0 351 0 24 25 c16 15 25 36 25 55 0 19 -9 40 -25 55 l-24 25 -351 0 -351 0
-24 -25z"/>
<path d="M694 970 c-54 -21 -72 -100 -31 -138 39 -37 98 -28 122 19 21 39 19
64 -7 93 -27 29 -55 38 -84 26z"/>
<path d="M1625 935 c-16 -15 -25 -36 -25 -55 0 -19 9 -40 25 -55 l24 -25 591
0 591 0 24 25 c16 15 25 36 25 55 0 19 -9 40 -25 55 l-24 25 -591 0 -591 0
-24 -25z"/>
</g>
</svg>
